<?xml version="1.0" encoding="utf-8"?>
<!-- Generator: Adobe Illustrator 23.1.1, SVG Export Plug-In . SVG Version: 6.00 Build 0)  -->
<svg width="20px" height="17px" version="1.1" id="Layer_1" xmlns="http://www.w3.org/2000/svg" xmlns:xlink="http://www.w3.org/1999/xlink" x="0px" y="0px"
	 viewBox="0 0 22.2 19.2" style="enable-background:new 0 0 22.2 19.2;" xml:space="preserve">
<style type="text/css">
	.st0{fill:#333333;}
</style>
<path id="Path_68" class="st0" d="M20.3,2.1C17.9-0.4,14-0.4,11.5,2c0,0,0,0-0.1,0.1l-0.3,0.4l-0.4-0.4C8.3-0.4,4.3-0.3,2,2.1
	s-2.3,6.3,0,8.7l7.3,7.4c1,1,2.6,1,3.5,0l7.3-7.3C22.6,8.4,22.6,4.5,20.3,2.1z M18.9,9.6l-7.3,7.3c-0.1,0.1-0.3,0.3-0.5,0.3l0,0v0
	l0,0c-0.2,0-0.4-0.1-0.5-0.2L3.2,9.6C1.5,7.8,1.5,5,3.3,3.2c1.7-1.7,4.5-1.7,6.2,0l0.4,0.4L9.2,4.2C8.9,4.6,8.8,5.1,9.1,5.5
	s0.9,0.4,1.2,0.1c0,0,0,0,0.1-0.1l2.3-2.3c1.8-1.8,4.6-1.8,6.3,0l0,0C20.7,5.1,20.7,7.9,18.9,9.6L18.9,9.6z"/>
</svg>
