<?xml version="1.0" encoding="utf-8"?>
<!-- Generator: Adobe Illustrator 23.1.1, SVG Export Plug-In . SVG Version: 6.00 Build 0)  -->
<svg width="21px" height="19px" version="1.1" id="Layer_1" xmlns="http://www.w3.org/2000/svg" xmlns:xlink="http://www.w3.org/1999/xlink" x="0px" y="0px"
	 viewBox="0 0 24.1 22.3" style="enable-background:new 0 0 24.1 22.3;" xml:space="preserve">
<style type="text/css">
	.st0{fill:#333333;}
</style>
<g id="Group_622" transform="translate(-28.048 -69.682)">
	<path id="Path_57" class="st0" d="M38.3,87.3c-1.2,0-2.2,1-2.2,2.3s1,2.2,2.3,2.2c1.2,0,2.2-1,2.2-2.2
		C40.6,88.3,39.6,87.3,38.3,87.3z M38.3,88.9c0.4,0,0.7,0.3,0.7,0.7c0,0.4-0.3,0.7-0.7,0.7s-0.7-0.3-0.7-0.7l0,0
		C37.7,89.2,38,88.9,38.3,88.9z"/>
	<path id="Path_58" class="st0" d="M45.5,87.3c-1.2,0-2.2,1-2.2,2.3s1,2.2,2.3,2.2c1.2,0,2.2-1,2.2-2.2
		C47.7,88.3,46.7,87.3,45.5,87.3z M44.8,89.5c0-0.4,0.3-0.7,0.7-0.7s0.7,0.3,0.7,0.7c0,0.4-0.3,0.7-0.7,0.7l0,0
		C45.1,90.2,44.8,89.9,44.8,89.5z"/>
	<path id="Path_59" class="st0" d="M51.7,74.2c-0.3-0.3-0.6-0.5-1-0.5H33.1l-0.3-1.6c-0.1-0.4-0.4-0.8-0.8-1L29.5,70
		c-0.4-0.2-0.9,0-1,0.4c-0.2,0.4,0,0.9,0.4,1l2.4,1L34,85.6c0.1,0.6,0.7,1.1,1.3,1.1h13.6c0.4,0,0.8-0.4,0.8-0.8s-0.4-0.8-0.8-0.8
		l0,0H35.5l-0.2-1.2H49c0.6,0,1.2-0.5,1.3-1.1l1.6-7.7C52,74.9,51.9,74.5,51.7,74.2z M50.3,75.2l-1.5,7.3H35l-1.5-7.3H50.3z"/>
</g>
</svg>
