<?xml version="1.0" encoding="utf-8"?>
<!-- Generator: Adobe Illustrator 23.1.1, SVG Export Plug-In . SVG Version: 6.00 Build 0)  -->
<svg width="17px" height="20px" version="1.1" id="Layer_1" xmlns="http://www.w3.org/2000/svg" xmlns:xlink="http://www.w3.org/1999/xlink" x="0px" y="0px"
	 viewBox="0 0 18.1 23.3" style="enable-background:new 0 0 18.1 23.3;" xml:space="preserve">
<style type="text/css">
	.st0{fill:#333333;}
</style>
<path id="Path_55" class="st0" d="M14.4,14.8c-1.4,0-2.6-1-2.8-2.4c0.4-0.3,0.8-0.7,1.1-1.1c0.7-1,1.2-2.2,1.3-3.4
	c0.1-0.1,0.1-0.1,0.1-0.2c0.3-0.7,0.4-1.5,0.4-2.2c0.1-2.9-2.2-5.3-5.1-5.4c-0.7,0-1.4,0.2-2,0.5c-0.1-0.1-0.3-0.1-0.6,0
	C5.6,1,4.7,1.9,4.2,3C3.7,4.2,3.6,5.6,3.9,6.9C4,7.2,4.1,7.5,4.2,7.7c0,0.1,0.1,0.1,0.1,0.2c0.2,1.8,1.1,3.4,2.4,4.5
	c-0.2,1.4-1.4,2.5-2.8,2.4c-2,0.1-3.6,1.7-3.6,3.7v4c0,0.4,0.3,0.7,0.7,0.7h16.3c0.4,0,0.7-0.3,0.7-0.7v-4
	C18.1,16.5,16.5,14.9,14.4,14.8z M5.5,16l2.7,3.8c0.4,0.6,1.3,0.7,1.9,0.3c0.1-0.1,0.2-0.2,0.3-0.3L13,16c0.5,0.2,0.9,0.3,1.4,0.3
	c1.3,0,2.3,1,2.3,2.3v3.2H1.8v-3.2c0-1.3,1-2.3,2.3-2.3C4.5,16.3,5,16.2,5.5,16z M5.7,7.7c0.6-0.5,1-1.1,1.3-1.8
	c0.5,0.2,0.9,0.3,1.3,0.3h3.5c0.4,0,0.7,0.2,0.9,0.5c0,2.8-1.6,5-3.5,5c-0.9,0-1.8-0.5-2.3-1.2l0,0l0,0C6.3,9.7,5.9,8.7,5.7,7.7
	L5.7,7.7z M8.1,13.1c0.7,0.2,1.5,0.2,2.2,0c0.2,0.9,0.7,1.6,1.4,2.2l-2.5,3.5l-2.5-3.5C7.4,14.7,7.9,13.9,8.1,13.1L8.1,13.1z
	 M7.2,1.8L7.3,2c0.1,0,0.3-0.1,0.5-0.1c0.1,0,0.2,0,0.3-0.1c0.5-0.2,1-0.4,1.5-0.4c2,0.1,3.6,1.7,3.6,3.7c-0.4-0.3-0.9-0.4-1.4-0.4
	H8.3C8,4.7,7.7,4.5,7.6,4.2C7.5,3.9,7,3.6,6.6,3.8C6.3,3.9,6.1,4.1,6,4.4C5.9,5,5.6,5.6,5.2,6.1c-0.3-1.9,0.6-3.6,2-4V1.8L7.2,1.8z"
	/>
</svg>
